<?xml version="1.0" encoding="UTF-8" standalone="no"?>
<!DOCTYPE svg PUBLIC "-//W3C//DTD SVG 1.1//EN" "http://www.w3.org/Graphics/SVG/1.1/DTD/svg11.dtd">
<svg width="100%" height="100%" viewBox="0 0 158 158" version="1.1" xmlns="http://www.w3.org/2000/svg" xmlns:xlink="http://www.w3.org/1999/xlink" xml:space="preserve" xmlns:serif="http://www.serif.com/" style="fill-rule:evenodd;clip-rule:evenodd;stroke-linejoin:round;stroke-miterlimit:2;">
    <g>
        <path id="Fill-1" d="M156,78.5C156,121.3 121.3,156 78.5,156C35.7,156 1,121.3 1,78.5C1,35.7 35.7,1 78.5,1C121.3,1 156,35.7 156,78.5" style="fill:rgb(80,81,86);"/>
        <path d="M151.8,48.2C149.8,43.5 147.4,39 144.5,34.8C141.7,30.6 138.4,26.7 134.9,23.1C131.3,19.5 127.4,16.3 123.2,13.5C119,10.6 114.5,8.2 109.8,6.2C100,2.1 89.7,0 79,0C68.3,0 58,2.1 48.2,6.2C43.5,8.2 39,10.6 34.8,13.5C30.6,16.3 26.7,19.6 23.1,23.1C19.5,26.7 16.3,30.6 13.5,34.8C10.6,39 8.2,43.5 6.2,48.2C2.1,58 0,68.3 0,79C0,89.7 2.1,100 6.2,109.8C8.2,114.5 10.6,119 13.5,123.2C16.3,127.4 19.6,131.3 23.1,134.9C26.7,138.5 30.6,141.7 34.8,144.5C39,147.4 43.5,149.8 48.2,151.8C58,155.9 68.3,158 79,158C89.7,158 100,155.9 109.8,151.8C114.5,149.8 119,147.4 123.2,144.5C127.4,141.7 131.3,138.4 134.9,134.9C138.5,131.3 141.7,127.4 144.5,123.2C147.4,119 149.8,114.5 151.8,109.8C155.9,100.1 158,89.7 158,79C158,68.3 155.9,58 151.8,48.2ZM79,155.1C37,155.1 2.9,121.1 2.9,79C2.9,36.9 37,2.9 79,2.9C121,2.9 155.1,36.9 155.1,79C155.1,121.1 121,155.1 79,155.1Z" style="fill:white;"/>
        <path id="Fill-6" d="M78.5,25C49,25 25,49 25,78.5C25,108 49,132 78.5,132C108,132 132,108 132,78.5C132,49 108,25 78.5,25M78.5,27.9C85.3,27.9 91.9,29.2 98.2,31.9C104.2,34.4 109.6,38.1 114.3,42.7C118.9,47.3 122.6,52.8 125.1,58.8C127.7,65 129.1,71.7 129.1,78.5C129.1,85.3 127.8,91.9 125.1,98.2C122.6,104.2 118.9,109.6 114.3,114.3C109.7,118.9 104.2,122.6 98.2,125.1C92,127.7 85.3,129.1 78.5,129.1C71.7,129.1 65.1,127.8 58.8,125.1C52.8,122.6 47.4,118.9 42.7,114.3C38.1,109.7 34.4,104.2 31.9,98.2C29.3,92 27.9,85.3 27.9,78.5C27.9,71.7 29.2,65.1 31.9,58.8C34.4,52.8 38.1,47.4 42.7,42.7C47.3,38.1 52.8,34.4 58.8,31.9C65.1,29.3 71.7,27.9 78.5,27.9" style="fill:white;"/>
        <path id="Fill-8" d="M63.8,48.2C64,48.3 64.2,48.4 64.3,48.6C66.1,49.7 67.8,50.9 69.6,52C69.9,52.2 70.3,52.4 70.6,52.5C71.4,52.9 72,52.6 72.4,51.8C73.3,50 74.2,48.1 75.1,46.3C76.2,44 77.4,41.7 78.5,39.4C78.6,39.3 78.6,39.1 78.7,39C78.8,39.2 78.9,39.3 78.9,39.4C81.1,43.7 83.3,47.9 85.5,52.2C85.7,52.6 85.9,52.7 86.4,52.6C86.9,52.5 87.4,52.3 87.9,52C89.9,50.9 91.8,49.8 93.8,48.7C94,48.6 94.1,48.5 94.4,48.4C94.4,48.6 94.4,48.8 94.3,48.9C93.2,53.9 92.1,58.9 91,64C90.6,65.6 90.3,67.2 89.9,68.9C89.8,69.3 89.8,69.7 89.8,70.1C89.8,70.8 90.2,71 90.8,70.7C91.4,70.5 91.9,70.1 92.3,69.6C94.9,66.6 97.5,63.7 100.1,60.7C100.2,60.6 100.3,60.5 100.5,60.3C100.6,60.5 100.6,60.6 100.7,60.8C101.2,62.3 101.8,63.8 102.3,65.3C102.5,66 103,66.3 103.6,66.4C104.1,66.4 104.6,66.4 105,66.3C107.9,65.7 110.9,65 113.8,64.4C113.9,64.4 114,64.4 114.2,64.3C114.2,64.5 114.2,64.6 114.1,64.7C113.1,68.4 112.1,72.1 111.1,75.7C111.1,75.8 111,75.9 111,76C110.8,77 111,77.1 111.7,77.6C112.2,77.9 112.8,78.2 113.4,78.4C114.1,78.7 114.8,78.9 115.6,79.2C115.7,79.3 115.9,79.3 116.1,79.4C115.9,79.6 115.8,79.7 115.6,79.8C109.9,84.4 104.2,89.1 98.4,93.7C98.1,93.9 97.8,94.2 97.5,94.5C97,95 96.9,95.6 97.2,96.3C97.8,97.7 98.3,99.2 98.8,100.6C99,101.2 99.3,101.8 99.5,102.5L99.1,102.5C94.9,101.7 90.6,101 86.4,100.2C84.6,99.9 82.8,99.6 81,99.2C80.5,99.1 80.4,99.2 80.4,99.7C80.6,105.6 80.7,111.4 80.9,117.3L80.9,117.9L76.9,117.9L76.9,117.3C77,114.6 77.1,112 77.2,109.3C77.3,106.2 77.4,103.1 77.5,100.1L77.5,99.6C77.5,99.2 77.3,99.1 76.9,99.2C75.5,99.5 74.1,99.8 72.6,100C68.3,100.8 63.9,101.7 59.6,102.5C59.2,102.6 58.7,102.7 58.2,102.8C58.3,102.6 58.3,102.4 58.4,102.3C59.1,100.6 59.7,99 60.4,97.3C60.7,96.7 60.8,96 60.7,95.3C60.6,94.8 60.3,94.3 59.9,94C56.4,91.1 52.8,88.3 49.3,85.4C47.1,83.6 44.9,81.8 42.7,80C42.5,79.8 42.3,79.7 42.1,79.5C42.3,79.4 42.4,79.3 42.5,79.3C43.7,78.8 45,78.2 46.2,77.7C46.8,77.5 47.1,77 47,76.4C47,76 46.9,75.6 46.8,75.2C45.9,71.7 44.9,68.3 44,64.8C44,64.6 43.9,64.4 43.8,64.2C44,64.2 44.1,64.2 44.2,64.3C46.9,64.9 49.7,65.5 52.4,66C52.9,66.1 53.4,66.2 54,66.1C54.8,66.1 55.5,65.7 55.8,64.8C56.3,63.5 56.8,62.2 57.4,60.9C57.5,60.7 57.5,60.6 57.6,60.4C57.8,60.5 57.9,60.7 58,60.8C59.8,62.9 61.5,65 63.3,67.1C64,68 64.9,68.7 65.7,69.5C66,69.8 66.4,70.1 66.8,70.3C67.4,70.6 67.7,70.4 67.9,69.8C68,69.2 67.9,68.6 67.8,68.1C66.5,61.5 65.1,55 63.8,48.4L63.8,48.2" style="fill:white;"/>
        <path d="M18,76.5C18,78.4 16.4,80 14.5,80C12.6,80 11,78.4 11,76.5C11,74.6 12.6,73 14.5,73C16.4,73 18,74.6 18,76.5M147,76.5C147,78.4 145.4,80 143.5,80C141.6,80 140,78.4 140,76.5C140,74.6 141.6,73 143.5,73C145.4,73 147,74.6 147,76.5" style="fill:white;"/>
        <path d="M25.6,34.3L24.4,38.6C22.8,38 21.5,38.3 20.5,39.7C19,41.9 20.2,44 22.4,45.5C24.6,47 27,47.4 28.5,45.2C29.4,43.9 29.4,42.7 28.2,41.3L31.7,38.7C33.5,41.2 33.5,44.2 31.5,47.2C28.7,51.3 24.6,52.2 20.1,49.1C15.6,46 14.9,41.7 17.7,37.6C19.7,34.6 22.5,33.3 25.6,34.3M35.3,27.4C35.9,28.4 37.4,32.3 37.4,32.3L39.9,30.4C39.9,30.4 36.2,28.2 35.3,27.4ZM49,31.3L45.7,33.9L42.7,32.1L38.6,35.3L39.8,38.5L36.6,41L31,25.8L34.6,23L49,31.3ZM45,15L48.8,13.5C48.8,13.5 55.8,18.7 57.2,20L57.3,20L53.8,11.5L57.3,10.1L63,24L59.2,25.5C59.2,25.5 52.3,20.4 50.8,19L50.7,19L54.2,27.5L50.8,29L45,15ZM72.8,10.3C72.7,11.5 71.7,15.9 71.7,15.9L74.9,15.6C74.9,15.5 73.2,11.4 72.8,10.3ZM82,21.5L77.7,21.9L76.2,18.6L71,19.1L70.1,22.6L66,23L70.2,6.4L74.9,6L82,21.5ZM91.7,11.7L89.7,11.3L87.9,20L89.9,20.4C92.5,20.9 94,19.4 94.5,16.8C95.1,14.1 94.3,12.2 91.7,11.7ZM86.2,7L92.4,8.3C97.4,9.3 99.8,12.7 98.8,17.7C97.8,22.7 94.2,24.8 89.2,23.8L83,22.5L86.2,7ZM107,12L111,13.7L104,28L100,26.3L107,12ZM119.6,24.3C118.7,25.1 115.1,27.5 115.1,27.5L117.7,29.3C117.7,29.3 119.1,25.4 119.6,24.3ZM119,38L115.5,35.6L116.6,32.4L112.3,29.4L109.3,31.3L106,29L120.2,20.1L124,22.8L119,38ZM132.8,31L135.3,34.3C135.3,34.3 131.8,42.5 130.8,44.2L130.8,44.3L138.6,38.7L140.9,41.8L128.2,51L125.7,47.7C125.7,47.7 129.2,39.6 130.2,37.8L130.2,37.7L122.4,43.3L120.1,40.2L132.8,31Z" style="fill:white;"/>
        <path d="M13.4,99.6C14.1,102.2 16.5,102.8 19.1,101.9C21.7,101 23.3,99 22.6,96.3C21.9,93.7 19.5,93.1 16.9,94C14.3,95 12.6,97 13.4,99.6M23.7,96C24.6,99.3 23,102.3 19.5,103.6C16,104.9 13.1,103.4 12.2,100.1C11.3,96.8 12.9,93.8 16.4,92.5C20,91.2 22.8,92.7 23.7,96M33,115.6L20.4,119L19.6,117.7C19.6,117.7 25.2,111.9 27.1,110.1C24.6,110.9 16.8,112.9 16.8,112.9L16,111.6L25,102.1L25.8,103.5C25.8,103.5 20.1,109.5 18.2,111.3C20.7,110.5 28.7,108.3 28.7,108.3L29.4,109.6C29.4,109.6 23.5,115.8 21.8,117.4C24,116.7 32.3,114.4 32.3,114.4L33,115.6ZM33.6,116L34.7,117.1C34.7,117.1 32.6,126.1 32.1,128.4L39.1,121.6L40.1,122.6L31.5,130.9L30.4,129.8C30.4,129.8 32.4,121.1 33,118.5L26,125.3L25,124.3L33.6,116ZM35,134.8L41.6,125L47,129.1L46.3,130.1L42.1,126.8L39.9,130.1L43.9,133.1L43.2,134.1L39.2,131.1L36.8,134.7L41.1,138L40.4,139L35,134.8ZM53.1,133.7L51,132.7L46.8,141.2L48.9,142.2C51.5,143.4 53.5,142.2 54.7,139.7C56,137.2 55.7,134.9 53.1,133.7ZM50.2,131L53.9,132.7C57,134.1 57.9,137 56.2,140.3C54.6,143.7 51.7,144.8 48.7,143.3L45,141.6L50.2,131ZM66.7,140.5C67.8,140.2 68.9,139.8 69.1,138.8C69.2,138 68.8,137.3 67.8,137.1C66.8,136.9 66.2,137.4 66,138.3C66,138.9 66.2,139.6 66.7,140.5M68.8,146.4L66,141.8C65,142.1 63.8,142.9 63.5,144.2C63.2,145.6 64.1,146.7 65.9,147.1C67.2,147.3 68.3,146.9 68.8,146.4M65.4,140.8C64.8,139.7 64.6,139 64.7,138.1C64.9,136.9 66,135.7 68.1,136.1C70,136.4 70.8,137.7 70.5,139.1C70.3,140.3 69.4,141 67.3,141.6L69.8,145.6C70.3,145 70.6,144.3 70.8,143.5L71.9,144.2C71.5,145.2 71.3,145.9 70.5,146.7L72,149L70.3,148.7L69.5,147.4C68.6,148 67.4,148.4 65.7,148.1C63,147.6 61.6,146.2 62,143.9C62.5,142 64.3,141.1 65.4,140.8M83.9,147.8C86.5,147.6 87.6,145.4 87.4,142.7C87.2,140 85.7,138 83.1,138.2C80.5,138.4 79.4,140.6 79.6,143.3C79.8,146 81.3,148 83.9,147.8M83,137C86.2,136.8 88.7,138.9 89,142.6C89.3,146.3 87.3,148.7 84,149C80.8,149.2 78.3,147.1 78,143.4C77.7,139.7 79.8,137.3 83,137M95,136.5L92.8,137.1L94.1,141.7L96.3,141.1C98.2,140.6 98.9,139.6 98.5,138C97.9,136.3 96.9,136 95,136.5ZM94.3,142.9L95.6,147.6L94.2,148L91,136.4L95,135.3C97.4,134.6 99.2,135.2 99.9,137.6C100.5,140 99.2,141.5 96.9,142.2L94.3,142.9ZM106.3,145L101,134L107.6,131L108.1,132.1L102.9,134.5L104.7,138.2L109.6,136L110.1,137.1L105.2,139.3L107.1,143.3L112.4,140.9L112.9,142L106.3,145ZM112.9,128.1L110.9,129.4L113.4,132.9L115.6,131.4C117.1,130.4 117.1,129.1 116.4,128.1C115.6,127.1 114.4,127.1 112.9,128.1M117.3,131.6L123,134.1L121.5,135.1L116,132.5L114.1,133.8L117.1,138.1L115.9,138.9L109,129.2L112.5,126.8C113.7,126 116,125 117.6,127.2C118.6,128.8 118.4,130.4 117.3,131.6M121.7,121.8C122.2,122.7 124.2,126.9 124.2,126.9L126.9,124.2C126.9,124.3 122.6,122.2 121.7,121.8ZM132,125.2L130.9,126.3L127.9,124.9L124.7,128.1L126.1,131.1L125.1,132.1L119.9,121L120.8,120.1L132,125.2ZM123,117.4L127.8,110L128.7,110.8L126.7,113.9L134.9,120.8L134.1,122.1L125.9,115.2L123.9,118.3L123,117.4ZM140.7,115L130,109.4L133.2,103L134.3,103.6L131.7,108.6L135.3,110.5L137.7,105.8L138.8,106.4L136.4,111.1L140.3,113.2L142.9,108.1L144,108.7L140.7,115ZM135.3,97.7L134.6,100L143.8,103L144.5,100.7C145.4,97.8 143.9,95.8 141.1,94.9C138.4,94.1 136.1,94.8 135.3,97.7ZM133,101.2L134.2,97.1C135.2,93.7 137.9,92.2 141.6,93.4C145.2,94.6 146.7,97.4 145.7,100.8L144.5,104.9L133,101.2Z" style="fill:white;"/>
    </g>
</svg>
