<?xml version="1.0" encoding="UTF-8"?>
<svg xmlns="http://www.w3.org/2000/svg" id="Layer_1" data-name="Layer 1" viewBox="0 0 17.34 19.1"><defs><style> .cls-1, .cls-2 { fill: none; stroke: #da1b27; stroke-linejoin: round; stroke-width: .5px; } .cls-2 { stroke-linecap: round; } </style></defs><path class="cls-1" d="m4.45,3.39L8.02.46c.34-.28.82-.28,1.16,0l3.71,3.04"/><polyline class="cls-1" points="16.82 6.96 8.63 13 .51 6.97"/><polyline class="cls-1" points="1.39 7.69 1.39 3.5 15.96 3.5 15.96 7.64"/><line class="cls-2" x1="5.83" y1="6.17" x2="11.51" y2="6.17"/><line class="cls-2" x1="7.4" y1="8.79" x2="9.95" y2="8.79"/><g><path class="cls-1" d="m15.91,6.03l.93.67c.13.09.25.35.25.62v10.24c0,.71-.56,1.29-1.26,1.29H1.51c-.7,0-1.26-.58-1.26-1.29V7.32c0-.27.12-.52.33-.7l.91-.64"/><line class="cls-1" x1="6.71" y1="11.59" x2=".32" y2="17.98"/><line class="cls-1" x1="10.57" y1="11.56" x2="16.99" y2="17.98"/></g></svg>