<?xml version="1.0" encoding="UTF-8"?>
<svg width="24px" height="24px" viewBox="0 0 24 24" version="1.1" xmlns="http://www.w3.org/2000/svg" xmlns:xlink="http://www.w3.org/1999/xlink">
    <title>Bits/Icons/Social/icon-youtube</title>
    <g id="Bits/Icons/Social/icon-youtube" stroke="none" stroke-width="1" fill="none" fill-rule="evenodd">
        <rect id="Bounds" x="0" y="0" width="24" height="24"></rect>
        <path d="M21.8701744,8.31231578 C21.8701744,6.55460104 20.5770271,5.14061718 18.9791503,5.14061718 C16.814789,5.03906033 14.607453,5 12.3532356,5 L11.6500135,5 C9.39970287,5 7.18846011,5.03906033 5.02409883,5.14061718 C3.43012878,5.14061718 2.13698152,6.56241311 2.13698152,8.32012785 C2.03931179,9.71067551 1.9963371,11.1012232 2.00024389,12.4917708 C1.9963371,13.8823185 2.03931179,15.2728662 2.13307473,16.6673199 C2.13307473,18.4250346 3.426222,19.8507366 5.02019204,19.8507366 C7.29394342,19.9561995 9.62629665,20.0030719 11.9977178,19.9991658 C14.3730457,20.0069779 16.6975853,19.9601055 18.9752435,19.8507366 C20.5731203,19.8507366 21.8662676,18.4250346 21.8662676,16.6673199 C21.9600305,15.2728662 22.0030052,13.8823185 21.9990984,12.4878648 C22.006912,11.0973171 21.9639373,9.70676948 21.8701744,8.31231578 Z M10.0872978,16.323589 L10.0872978,8.6482346 L15.7521423,12.4839588 L10.0872978,16.323589 L10.0872978,16.323589 Z" id="Shape" fill="#383D43"></path>
    </g>
</svg>