<?xml version="1.0" encoding="UTF-8"?>
<svg width="24px" height="24px" viewBox="0 0 24 24" version="1.1" xmlns="http://www.w3.org/2000/svg" xmlns:xlink="http://www.w3.org/1999/xlink">
    <title>Bits/Icons/Social/icon-instagram</title>
    <g id="Bits/Icons/Social/icon-instagram" stroke="none" stroke-width="1" fill="none" fill-rule="evenodd">
        <rect id="Bounds" x="0" y="0" width="24" height="24"></rect>
        <path d="M13.0194826,2.98199942 C14.5564192,2.9856336 14.90092,2.99988 15.709,3.036 C16.457,3.052 17.196,3.193 17.895,3.456 C19.104,3.924 20.059,4.88 20.528,6.089 C20.796,6.797 20.936,7.548 20.947,8.305 C20.9582,8.4964 20.96716,8.66192 20.974344,8.823792 L20.982142,9.01771021 C20.9961519,9.40773594 21.001001,9.82797171 21.0031038,10.5857527 L21.003956,10.9941948 C21.0040698,11.0674309 21.004172,11.1433668 21.0042662,11.2221803 L21.004409,12.8059482 C21.001448,14.5396608 20.98684,14.87744 20.949,15.724 C20.934,16.473 20.793,17.211 20.53,17.911 C20.061,19.119 19.106,20.075 17.897,20.544 C17.197,20.807 16.458,20.948 15.711,20.963 C14.9852,21.00556 14.6302192,21.0157744 13.4296551,21.0182259 L12.2839981,21.0189964 L12.2839981,21.0189964 L12.001,21.019 C11.90332,21.019 11.8090592,21.0189792 11.7180387,21.0189365 L11.2093686,21.018409 C9.4763248,21.015448 9.13844,21.00084 8.291,20.963 C7.541,20.939 6.802,20.785 6.106,20.513 C4.896,20.045 3.941,19.089 3.472,17.881 C3.209,17.18 3.068,16.442 3.053,15.694 C3.0418,15.5028 3.03284,15.33736 3.025672,15.175488 L3.01790189,14.981534 C3.0039673,14.59137 2.99932243,14.1706273 2.99777414,13.4125238 L2.99759098,11.1923686 C3.000552,9.4593248 3.01516,9.12144 3.053,8.274 C3.067,7.527 3.209,6.788 3.472,6.089 C3.94,4.88 4.896,3.924 6.105,3.456 C6.804,3.193 7.543,3.052 8.29,3.036 C9.0158,2.9942 9.3707808,2.984168 10.5713449,2.98176032 Z M11.994,7.356 C9.44,7.356 7.371,9.425 7.371,11.979 C7.371,14.533 9.44,16.602 11.994,16.602 C14.546,16.602 16.617,14.533 16.617,11.979 C16.617,9.425 14.546,7.356 11.994,7.356 Z M11.994,8.976 C13.6525111,8.976 14.997,10.3204889 14.997,11.979 C14.997,13.6375111 13.6525111,14.982 11.994,14.982 C10.3354889,14.982 8.991,13.6375111 8.991,11.979 C8.991,10.3204889 10.3354889,8.976 11.994,8.976 Z M16.801,6.107 C16.204,6.107 15.723,6.589 15.723,7.185 C15.723,7.781 16.204,8.263 16.801,8.263 C17.396,8.263 17.878,7.781 17.878,7.185 C17.878,6.589 17.396,6.107 16.801,6.107 Z" id="Combined-Shape" fill="#383D43"></path>
    </g>
</svg>