<?xml version="1.0" encoding="UTF-8"?>
<svg width="24px" height="24px" viewBox="0 0 24 24" version="1.1" xmlns="http://www.w3.org/2000/svg" xmlns:xlink="http://www.w3.org/1999/xlink">
    <title>Bits/Icons/Social/icon-linkedin</title>
    <g id="Bits/Icons/Social/icon-linkedin" stroke="none" stroke-width="1" fill="none" fill-rule="evenodd">
        <rect id="Bounds" x="0" y="0" width="24" height="24"></rect>
        <path d="M9,9.28938907 L9,20.9990354 L12.8449375,20.9990354 L12.8449375,15.2083601 C12.8449375,13.6803859 13.1489416,12.2006431 15.1525121,12.2006431 C17.1285386,12.2006431 17.1530222,13.9475884 17.1530222,15.3048232 L17.1530222,21 L21,21 L21,14.5784566 C21,11.4241158 20.2818159,9 16.3828105,9 C14.5108391,9 13.2560571,9.97138264 12.7429227,10.8906752 L12.6908952,10.8906752 L12.6908952,9.28938907 L9,9.28938907 L9,9.28938907 Z M7,9 L7,21 L3,21 L3,9 L7,9 Z M5,3 C6.1045695,3 7,3.8954305 7,5 C7,6.1045695 6.1045695,7 5,7 C3.8954305,7 3,6.1045695 3,5 C3,3.8954305 3.8954305,3 5,3 Z" id="Shape" fill="#383D43"></path>
    </g>
</svg>