<?xml version="1.0" encoding="UTF-8"?>
<svg width="24px" height="24px" viewBox="0 0 24 24" version="1.1" xmlns="http://www.w3.org/2000/svg" xmlns:xlink="http://www.w3.org/1999/xlink">
    <title>Bits/Icons/Social/icon-twitter</title>
    <g id="Bits/Icons/Social/icon-twitter" stroke="none" stroke-width="1" fill="none" fill-rule="evenodd">
        <rect id="Bounds" x="0" y="0" width="24" height="24"></rect>
        <path d="M22,6.77734375 C21.2625556,7.078125 20.474253,7.28125 19.6435686,7.375 C20.4912058,6.90625 21.1438864,6.1640625 21.4490358,5.28125 C20.656495,5.71484375 19.7791905,6.03125 18.8425514,6.19921875 C18.0923925,5.4609375 17.0243696,5 15.8461538,5 C13.5787243,5 11.7435897,6.6953125 11.7435897,8.78515625 C11.7435897,9.08203125 11.7774952,9.37109375 11.8495444,9.6484375 C8.43780462,9.4921875 5.41173978,7.984375 3.39012503,5.69140625 C3.03835558,6.25 2.83492265,6.90234375 2.83492265,7.59375 C2.83492265,8.90625 3.56389065,10.0664062 4.66581903,10.7460938 C3.98770926,10.7304688 3.35198135,10.5585938 2.80101716,10.2734375 L2.80101716,10.3203125 C2.80101716,12.15625 4.21657131,13.6835938 6.09408773,14.03125 C5.75079466,14.1171875 5.38631066,14.1640625 5.01335029,14.1640625 C4.75058275,14.1640625 4.4920534,14.140625 4.24200042,14.09375 C4.76329731,15.5976562 6.28056792,16.6914062 8.0775588,16.7226562 C6.67471922,17.7382812 4.90315745,18.34375 2.97902098,18.34375 C2.64844247,18.34375 2.32210214,18.3242188 2,18.2890625 C3.80970545,19.375 5.96694215,20 8.28099174,20 C15.8376775,20 19.9656707,14.2304688 19.9656707,9.2265625 C19.9656707,9.0625 19.9614325,8.8984375 19.9529561,8.73828125 C20.7539733,8.203125 21.4490358,7.5390625 22,6.77734375 Z" id="Path" fill="#383D43"></path>
    </g>
</svg>