<?xml version="1.0" encoding="utf-8"?>
<!-- Generator: Adobe Illustrator 25.2.1, SVG Export Plug-In . SVG Version: 6.00 Build 0)  -->
<svg version="1.1" id="Layer_1" xmlns="http://www.w3.org/2000/svg" xmlns:xlink="http://www.w3.org/1999/xlink" x="0px" y="0px"
	 viewBox="0 0 172 172" style="enable-background:new 0 0 172 172;" xml:space="preserve">
<style type="text/css">
	.st0{fill:#29292C;}
	.st1{fill:none;}
</style>
<path class="st0" d="M85.2,92c5.7,0.1,11.2-1.7,15.7-5.1l-1.9-2.8c-3.5,2.5-7.6,4.8-13.6,4.8c-9.8,0-17.5-6-17.5-17.3
	C68,59.8,76.4,52,86.6,52C96,52,102,58.1,102,66.8c0,7-4.1,11.1-7.3,11.1c-1.5,0-2.5-1-2.5-2.8c0-0.4,0.1-0.8,0.1-1.2l2.5-13.1h-3.5
	l-0.5,2.7c-0.7-1.8-3-3.2-5.9-3.2c-5.4,0-9.9,5.1-9.9,11.6c0,5.6,3.2,8.9,7.5,8.9c2.7,0.1,5.3-1.3,6.8-3.6c0.4,1.5,1.5,3.6,5.1,3.6
	c6.9,0,11.1-6.8,11.1-14.4c0-10.8-8.4-17.5-19-17.5c-11.9,0-22.3,8.6-22.3,22.6C64.2,82.6,71,92,85.2,92z M89.7,70.3l-0.4,1.8
	c-0.7,3.3-3,5.7-6.1,5.7c-2.8,0-4.4-2.5-4.4-6.2c0-4.5,2.9-8.5,6.6-8.5C88.3,63.3,90.7,65.9,89.7,70.3z M156.6,69.2l-14.4-11.3V25.8
	c0-0.8-0.7-1.5-1.5-1.5H99.4l-12.6-9.9c-0.5-0.4-1.3-0.4-1.8,0l-12.7,9.9H31.1c-0.8,0-1.5,0.7-1.5,1.5v31.9L15.2,68.9
	c-0.4,0.3-0.6,0.7-0.6,1.2l0.1,6v80.5c0,0.8,0.7,1.5,1.5,1.5h139.4c0.8,0,1.5-0.7,1.5-1.5V76.1l0-5.6C157.2,70,157,69.5,156.6,69.2z
	 M153.6,70.7l-11.5,9v-18L153.6,70.7z M85.9,17.5l8.7,6.8H77.2L85.9,17.5z M139.2,27.3v54.8l-53.3,41.8L32.6,82.1V27.3L139.2,27.3z
	 M29.6,79.7L18,70.6l11.7-9.1V79.7z M154.1,155H17.7v-79l0-1.9l40,31.4l-23,17.9c-0.7,0.5-0.8,1.5-0.3,2.1c0.5,0.7,1.5,0.8,2.1,0.3
	c0,0,0,0,0,0l23.5-18.4L85,126.9c0.5,0.4,1.3,0.4,1.9,0l25.1-19.7l23.8,18.6c0.7,0.5,1.6,0.4,2.1-0.3c0.5-0.7,0.4-1.6-0.3-2.1
	l-23.2-18.1l39.8-31.2l0,1.9V155z"/>
<rect x="0.3" y="0.4" class="st1" width="171.4" height="171.4"/>
</svg>
