<?xml version="1.0" encoding="utf-8"?>
<!-- Generator: Adobe Illustrator 25.4.1, SVG Export Plug-In . SVG Version: 6.00 Build 0)  -->
<svg version="1.1" id="Layer_1" xmlns="http://www.w3.org/2000/svg" xmlns:xlink="http://www.w3.org/1999/xlink" x="0px" y="0px"
	 viewBox="0 0 24 24" style="enable-background:new 0 0 24 24;" xml:space="preserve">
<style type="text/css">
	.st0{fill:none;}
</style>
<path class="st0" d="M0,0h24v24H0V0z"/>
<path d="M12,2C6.5,2,2,6.5,2,12s4.5,10,10,10s10-4.5,10-10S17.5,2,12,2z M16,13h-3v3c0,0.5-0.4,1-1,1s-1-0.5-1-1v-3H8
	c-0.6,0-1-0.4-1-1s0.4-1,1-1h3V8c0-0.6,0.4-1,1-1s1,0.4,1,1v3h3c0.5,0,1,0.4,1,1S16.5,13,16,13z"/>
<rect x="9.1" y="7" width="5.8" height="4"/>
<rect x="11" y="13" width="2.9" height="4"/>
</svg>
