<?xml version="1.0" encoding="utf-8"?>
<!-- Generator: Adobe Illustrator 25.4.1, SVG Export Plug-In . SVG Version: 6.00 Build 0)  -->
<svg version="1.1" id="Layer_1" xmlns="http://www.w3.org/2000/svg" xmlns:xlink="http://www.w3.org/1999/xlink" x="0px" y="0px"
	 viewBox="0 0 24 24" style="enable-background:new 0 0 24 24;" xml:space="preserve">
<style type="text/css">
	.st0{fill-rule:evenodd;clip-rule:evenodd;}
</style>
<path class="st0" d="M12.5,4.5c0.7,0,1.3,0.3,1.7,0.8L24,16.4c0.6,0.8,0.6,1.9-0.2,2.6c-0.8,0.7-1.9,0.6-2.6-0.1l-8.6-9.8
	c0-0.1-0.1-0.1-0.2-0.1c-0.1,0-0.1,0-0.2,0.1l-8.6,9.8C3,19.6,1.9,19.7,1.1,19c-0.8-0.7-0.8-1.8-0.2-2.6l9.8-11.1
	C11.2,4.8,11.8,4.5,12.5,4.5z"/>
</svg>
