<?xml version="1.0" encoding="UTF-8" standalone="no"?>
<!DOCTYPE svg PUBLIC "-//W3C//DTD SVG 1.1//EN" "http://www.w3.org/Graphics/SVG/1.1/DTD/svg11.dtd">
<svg width="100%" height="100%" viewBox="0 0 24 24" version="1.1" xmlns="http://www.w3.org/2000/svg" xmlns:xlink="http://www.w3.org/1999/xlink" xml:space="preserve" xmlns:serif="http://www.serif.com/" style="fill-rule:evenodd;clip-rule:evenodd;stroke-linejoin:round;stroke-miterlimit:2;">
    <path d="M0,0L24,0L24,24L0,24L0,0ZM0,0L24,0L24,24L0,24L0,0Z" style="fill:none;fill-rule:nonzero;"/>
    <path d="M10.88,21.94L16.41,16.4C16.78,16.03 16.99,15.52 16.99,14.99L16.99,5C16.99,3.9 16.09,3 14.99,3L6,3C5.2,3 4.48,3.48 4.17,4.21L0.91,11.82C0.06,13.8 1.51,16 3.66,16L9.31,16L8.36,20.58C8.26,21.08 8.41,21.59 8.77,21.95C9.36,22.53 10.3,22.53 10.88,21.94ZM21,3C19.9,3 19,3.9 19,5L19,13C19,14.1 19.9,15 21,15C22.1,15 23,14.1 23,13L23,5C23,3.9 22.1,3 21,3Z" style="fill:rgb(220,28,40);fill-rule:nonzero;"/>
</svg>
